<svg width="25" height="25" viewBox="0 0 25 25" fill="none" xmlns="http://www.w3.org/2000/svg">
<path d="M9.26163 7.57043C8.83309 7.27034 8.51179 6.84103 8.34471 6.34526C8.17763 5.84949 8.17353 5.31328 8.33302 4.81502C8.4925 4.31676 8.8072 3.88258 9.2311 3.57597C9.655 3.26937 10.1659 3.10641 10.689 3.11093C11.2122 3.11545 11.7201 3.28721 12.1387 3.6011C12.5572 3.91498 12.8644 4.35453 13.0152 4.85548C13.1661 5.35642 13.1527 5.89248 12.9771 6.38529C12.8015 6.87809 12.4728 7.30179 12.0391 7.59443M4.57313 13.1639C4.88785 12.746 5.32802 12.4398 5.82926 12.2899C6.33051 12.1401 6.86654 12.1545 7.359 12.3311C7.85145 12.5077 8.27449 12.8373 8.56626 13.2715C8.85803 13.7057 9.00322 14.2219 8.98062 14.7446C8.95802 15.2673 8.7688 15.769 8.44063 16.1765C8.11247 16.5839 7.66256 16.8757 7.1567 17.0091C6.65084 17.1426 6.11556 17.1107 5.62912 16.9181C5.14268 16.7256 4.7306 16.3825 4.45312 15.9389" stroke="white" stroke-width="1.5" stroke-linecap="round" stroke-linejoin="round"/>
<path d="M9.25706 7.57031C9.42206 7.87731 9.39006 8.40031 8.61206 8.49331H3.78706V12.6133C3.77277 12.7113 3.78592 12.8113 3.82506 12.9023C3.8642 12.9932 3.92778 13.0715 4.00876 13.1285C4.08973 13.1855 4.18492 13.2189 4.28374 13.2251C4.38256 13.2312 4.48116 13.2098 4.56856 13.1633M4.44906 15.9383C4.36791 15.9005 4.27772 15.8864 4.1889 15.8976C4.10007 15.9088 4.01623 15.9449 3.94703 16.0017C3.87783 16.0586 3.8261 16.1338 3.7978 16.2187C3.76949 16.3036 3.76577 16.3949 3.78706 16.4818V20.4468H14.0371" stroke="white" stroke-width="1.5" stroke-linecap="round" stroke-linejoin="round"/>
<path d="M9.90625 17.5668L11.1823 19.7868C12.7163 18.8798 14.2832 19.7908 14.2832 21.5703H16.8318C16.8318 19.7908 18.2508 18.9633 19.9398 19.7908L21.2162 17.5658C19.6417 16.6623 19.6407 14.8968 21.2162 13.9908L19.9398 11.7723C18.4223 12.6733 16.8318 11.7743 16.8318 9.98633H14.2832C14.2832 11.7743 12.7168 12.6733 11.1813 11.7743L9.90625 13.9508C11.5202 14.8958 11.4262 16.6933 9.90625 17.5668Z" stroke="white" stroke-width="1.5" stroke-linecap="round" stroke-linejoin="round"/>
<path d="M15.5606 17.8623C16.7115 17.8623 17.6446 16.9293 17.6446 15.7783C17.6446 14.6274 16.7115 13.6943 15.5606 13.6943C14.4096 13.6943 13.4766 14.6274 13.4766 15.7783C13.4766 16.9293 14.4096 17.8623 15.5606 17.8623Z" stroke="white" stroke-width="0.5" stroke-linecap="round" stroke-linejoin="round"/>
<path d="M12.0387 7.59424C11.8047 7.78224 11.7487 8.39824 12.6317 8.49324H16.8312V9.98624" stroke="white" stroke-width="1.5" stroke-linecap="round" stroke-linejoin="round"/>
</svg>
