<svg width="70" height="70" viewBox="0 0 70 70" fill="none" xmlns="http://www.w3.org/2000/svg">
<rect x="9.9" y="9.9" width="50.2" height="50.2" rx="12.1" fill="#212121" fill-opacity="0.8"/>
<rect x="9.9" y="9.9" width="50.2" height="50.2" rx="12.1" stroke="#DADADA" stroke-width="0.2"/>
<path d="M42.3419 37.49L41.3419 35.83C41.1319 35.46 40.9419 34.76 40.9419 34.35V31.82C40.9419 29.47 39.5619 27.44 37.5719 26.49C37.0519 25.57 36.0919 25 34.9919 25C33.9019 25 32.9219 25.59 32.4019 26.52C30.4519 27.49 29.1019 29.5 29.1019 31.82V34.35C29.1019 34.76 28.9119 35.46 28.7019 35.82L27.6919 37.49C27.2919 38.16 27.2019 38.9 27.4519 39.58C27.6919 40.25 28.2619 40.77 29.0019 41.02C30.9419 41.68 32.9819 42 35.0219 42C37.0619 42 39.1019 41.68 41.0419 41.03C41.7419 40.8 42.2819 40.27 42.5419 39.58C42.8019 38.89 42.7319 38.13 42.3419 37.49Z" fill="white"/>
<path d="M37.8297 43.01C37.4097 44.17 36.2997 45 34.9997 45C34.2097 45 33.4297 44.68 32.8797 44.11C32.5597 43.81 32.3197 43.41 32.1797 43C32.3097 43.02 32.4397 43.03 32.5797 43.05C32.8097 43.08 33.0497 43.11 33.2897 43.13C33.8597 43.18 34.4397 43.21 35.0197 43.21C35.5897 43.21 36.1597 43.18 36.7197 43.13C36.9297 43.11 37.1397 43.1 37.3397 43.07C37.4997 43.05 37.6597 43.03 37.8297 43.01Z" fill="white"/>
</svg>
