<svg width="28" height="28" viewBox="0 0 28 28" fill="none" xmlns="http://www.w3.org/2000/svg">
<path d="M14 14.6841V21.4341H5.5625V14.6841H14ZM14 12.9966H5.5625C5.11495 12.9966 4.68572 13.1744 4.36926 13.4908C4.05279 13.8073 3.875 14.2365 3.875 14.6841V21.4341C3.875 21.8816 4.05279 22.3109 4.36926 22.6273C4.68572 22.9438 5.11495 23.1216 5.5625 23.1216H14C14.4476 23.1216 14.8768 22.9438 15.1932 22.6273C15.5097 22.3109 15.6875 21.8816 15.6875 21.4341V14.6841C15.6875 14.2365 15.5097 13.8073 15.1932 13.4908C14.8768 13.1744 14.4476 12.9966 14 12.9966ZM23.2812 5.40283V9.62158H14.8438V5.40283H23.2812ZM23.2812 3.71533H14.8438C14.3962 3.71533 13.967 3.89312 13.6505 4.20959C13.334 4.52606 13.1562 4.95528 13.1562 5.40283V9.62158C13.1562 10.0691 13.334 10.4984 13.6505 10.8148C13.967 11.1313 14.3962 11.3091 14.8438 11.3091H23.2812C23.7288 11.3091 24.158 11.1313 24.4745 10.8148C24.791 10.4984 24.9688 10.0691 24.9688 9.62158V5.40283C24.9688 4.95528 24.791 4.52606 24.4745 4.20959C24.158 3.89312 23.7288 3.71533 23.2812 3.71533ZM23.2812 14.6841V18.9028H19.0625V14.6841H23.2812ZM23.2812 12.9966H19.0625C18.6149 12.9966 18.1857 13.1744 17.8693 13.4908C17.5528 13.8073 17.375 14.2365 17.375 14.6841V18.9028C17.375 19.3504 17.5528 19.7796 17.8693 20.0961C18.1857 20.4125 18.6149 20.5903 19.0625 20.5903H23.2812C23.7288 20.5903 24.158 20.4125 24.4745 20.0961C24.791 19.7796 24.9688 19.3504 24.9688 18.9028V14.6841C24.9688 14.2365 24.791 13.8073 24.4745 13.4908C24.158 13.1744 23.7288 12.9966 23.2812 12.9966ZM9.78125 5.40283V9.62158H5.5625V5.40283H9.78125ZM9.78125 3.71533H5.5625C5.11495 3.71533 4.68572 3.89312 4.36926 4.20959C4.05279 4.52606 3.875 4.95528 3.875 5.40283V9.62158C3.875 10.0691 4.05279 10.4984 4.36926 10.8148C4.68572 11.1313 5.11495 11.3091 5.5625 11.3091H9.78125C10.2288 11.3091 10.658 11.1313 10.9745 10.8148C11.291 10.4984 11.4688 10.0691 11.4688 9.62158V5.40283C11.4688 4.95528 11.291 4.52606 10.9745 4.20959C10.658 3.89312 10.2288 3.71533 9.78125 3.71533Z" fill="white"/>
</svg>
