<svg width="25" height="25" viewBox="0 0 25 25" fill="none" xmlns="http://www.w3.org/2000/svg">
<path d="M22.5 22.3405H2.5C2.09 22.3405 1.75 22.0005 1.75 21.5905C1.75 21.1805 2.09 20.8405 2.5 20.8405H22.5C22.91 20.8405 23.25 21.1805 23.25 21.5905C23.25 22.0005 22.91 22.3405 22.5 22.3405Z" fill="#F5F5F5" fill-opacity="0.960784"/>
<path d="M10.25 4.34045V22.3405H14.75V4.34045C14.75 3.24045 14.3 2.34045 12.95 2.34045H12.05C10.7 2.34045 10.25 3.24045 10.25 4.34045Z" fill="#F5F5F5" fill-opacity="0.960784"/>
<path opacity="0.4" d="M3.5 10.3405V22.3405H7.5V10.3405C7.5 9.24045 7.1 8.34045 5.9 8.34045H5.1C3.9 8.34045 3.5 9.24045 3.5 10.3405ZM17.5 15.3405V22.3405H21.5V15.3405C21.5 14.2405 21.1 13.3405 19.9 13.3405H19.1C17.9 13.3405 17.5 14.2405 17.5 15.3405Z" fill="#F5F5F5" fill-opacity="0.960784"/>
</svg>
