<svg width="25" height="25" viewBox="0 0 25 25" fill="none" xmlns="http://www.w3.org/2000/svg">
<path d="M8 3.84033C7.60218 3.84033 7.22064 3.99837 6.93934 4.27967C6.65804 4.56098 6.5 4.94251 6.5 5.34033C6.5 5.73816 6.65804 6.11969 6.93934 6.40099C7.22064 6.6823 7.60218 6.84033 8 6.84033C8.39782 6.84033 8.77936 6.6823 9.06066 6.40099C9.34196 6.11969 9.5 5.73816 9.5 5.34033C9.5 4.94251 9.34196 4.56098 9.06066 4.27967C8.77936 3.99837 8.39782 3.84033 8 3.84033ZM5 5.34033C5 4.54468 5.31607 3.78162 5.87868 3.21901C6.44129 2.6564 7.20435 2.34033 8 2.34033C8.79565 2.34033 9.55871 2.6564 10.1213 3.21901C10.6839 3.78162 11 4.54468 11 5.34033C11 6.13598 10.6839 6.89904 10.1213 7.46165C9.55871 8.02426 8.79565 8.34033 8 8.34033C7.20435 8.34033 6.44129 8.02426 5.87868 7.46165C5.31607 6.89904 5 6.13598 5 5.34033ZM4.268 9.34033C3.29 9.34033 2.5 10.1313 2.5 11.1083V11.4683C2.5 11.6753 2.5 12.8763 3.2 14.0433C3.748 14.9533 4.677 15.7703 6.175 16.1363C6.38035 15.591 6.75184 15.124 7.237 14.8013C5.634 14.6303 4.876 13.9183 4.487 13.2713C4.003 12.4653 4 11.6073 4 11.4653V11.1083C4 10.9603 4.12 10.8403 4.268 10.8403H8.53C8.59675 10.3117 8.76844 9.80171 9.035 9.34033H4.268ZM15.965 9.34033C16.226 9.79233 16.402 10.2993 16.469 10.8403H20.732C20.88 10.8403 21 10.9603 21 11.1083V11.4653C21 11.6073 20.997 12.4653 20.513 13.2703C20.124 13.9183 19.366 14.6303 17.763 14.8013C18.243 15.1213 18.619 15.5873 18.825 16.1363C20.323 15.7703 21.252 14.9533 21.799 14.0433C22.5 12.8763 22.5 11.6763 22.5 11.4673V11.1073C22.5 10.1323 21.709 9.34033 20.732 9.34033H15.965ZM15.5 5.34033C15.5 4.94251 15.658 4.56098 15.9393 4.27967C16.2206 3.99837 16.6022 3.84033 17 3.84033C17.3978 3.84033 17.7794 3.99837 18.0607 4.27967C18.342 4.56098 18.5 4.94251 18.5 5.34033C18.5 5.73816 18.342 6.11969 18.0607 6.40099C17.7794 6.6823 17.3978 6.84033 17 6.84033C16.6022 6.84033 16.2206 6.6823 15.9393 6.40099C15.658 6.11969 15.5 5.73816 15.5 5.34033ZM17 2.34033C16.2044 2.34033 15.4413 2.6564 14.8787 3.21901C14.3161 3.78162 14 4.54468 14 5.34033C14 6.13598 14.3161 6.89904 14.8787 7.46165C15.4413 8.02426 16.2044 8.34033 17 8.34033C17.7956 8.34033 18.5587 8.02426 19.1213 7.46165C19.6839 6.89904 20 6.13598 20 5.34033C20 4.54468 19.6839 3.78162 19.1213 3.21901C18.5587 2.6564 17.7956 2.34033 17 2.34033ZM12.5 9.84033C12.303 9.84033 12.108 9.87913 11.926 9.95451C11.744 10.0299 11.5786 10.1404 11.4393 10.2797C11.3001 10.419 11.1896 10.5843 11.1142 10.7663C11.0388 10.9483 11 11.1433 11 11.3403C11 11.5373 11.0388 11.7324 11.1142 11.9144C11.1896 12.0963 11.3001 12.2617 11.4393 12.401C11.5786 12.5403 11.744 12.6508 11.926 12.7262C12.108 12.8015 12.303 12.8403 12.5 12.8403C12.8978 12.8403 13.2794 12.6823 13.5607 12.401C13.842 12.1197 14 11.7382 14 11.3403C14 10.9425 13.842 10.561 13.5607 10.2797C13.2794 9.99837 12.8978 9.84033 12.5 9.84033ZM9.5 11.3403C9.5 10.5447 9.81607 9.78162 10.3787 9.21901C10.9413 8.6564 11.7044 8.34033 12.5 8.34033C13.2956 8.34033 14.0587 8.6564 14.6213 9.21901C15.1839 9.78162 15.5 10.5447 15.5 11.3403C15.5 12.136 15.1839 12.899 14.6213 13.4617C14.0587 14.0243 13.2956 14.3403 12.5 14.3403C11.7044 14.3403 10.9413 14.0243 10.3787 13.4617C9.81607 12.899 9.5 12.136 9.5 11.3403ZM7 17.1083C7 16.1303 7.791 15.3403 8.768 15.3403H16.232C17.209 15.3403 18 16.1313 18 17.1083V17.4683C18 17.6753 18 18.8763 17.3 20.0433C16.557 21.2773 15.113 22.3403 12.5 22.3403C9.887 22.3403 8.442 21.2773 7.7 20.0433C7 18.8763 7 17.6763 7 17.4673V17.1083ZM8.768 16.8403C8.69708 16.8409 8.62922 16.8693 8.57907 16.9194C8.52893 16.9696 8.50052 17.0374 8.5 17.1083V17.4653C8.5 17.6073 8.503 18.4653 8.987 19.2703C9.433 20.0133 10.364 20.8403 12.5 20.8403C14.636 20.8403 15.567 20.0133 16.013 19.2703C16.497 18.4653 16.5 17.6073 16.5 17.4653V17.1083C16.4995 17.0374 16.4711 16.9696 16.4209 16.9194C16.3708 16.8693 16.3029 16.8409 16.232 16.8403H8.768Z" fill="white"/>
</svg>
