<svg width="52" height="52" viewBox="0 0 52 52" fill="none" xmlns="http://www.w3.org/2000/svg">
<rect x="0.9" y="0.9" width="50.2" height="50.2" rx="12.1" fill="#212121" fill-opacity="0.8"/>
<rect x="0.9" y="0.9" width="50.2" height="50.2" rx="12.1" stroke="#DADADA" stroke-width="0.2"/>
<path d="M33.3419 28.49L32.3419 26.83C32.1319 26.46 31.9419 25.76 31.9419 25.35V22.82C31.9419 20.47 30.5619 18.44 28.5719 17.49C28.0519 16.57 27.0919 16 25.9919 16C24.9019 16 23.9219 16.59 23.4019 17.52C21.4519 18.49 20.1019 20.5 20.1019 22.82V25.35C20.1019 25.76 19.9119 26.46 19.7019 26.82L18.6919 28.49C18.2919 29.16 18.2019 29.9 18.4519 30.58C18.6919 31.25 19.2619 31.77 20.0019 32.02C21.9419 32.68 23.9819 33 26.0219 33C28.0619 33 30.1019 32.68 32.0419 32.03C32.7419 31.8 33.2819 31.27 33.5419 30.58C33.8019 29.89 33.7319 29.13 33.3419 28.49Z" fill="white"/>
<path d="M28.8297 34.01C28.4097 35.17 27.2997 36 25.9997 36C25.2097 36 24.4297 35.68 23.8797 35.11C23.5597 34.81 23.3197 34.41 23.1797 34C23.3097 34.02 23.4397 34.03 23.5797 34.05C23.8097 34.08 24.0497 34.11 24.2897 34.13C24.8597 34.18 25.4397 34.21 26.0197 34.21C26.5897 34.21 27.1597 34.18 27.7197 34.13C27.9297 34.11 28.1397 34.1 28.3397 34.07C28.4997 34.05 28.6597 34.03 28.8297 34.01Z" fill="white"/>
</svg>
