<svg width="25" height="25" viewBox="0 0 25 25" fill="none" xmlns="http://www.w3.org/2000/svg">
<path d="M21.328 8.35047L14.778 3.11047C13.498 2.09047 11.498 2.08047 10.228 3.10047L3.67801 8.35047C2.73801 9.10047 2.16801 10.6005 2.36801 11.7805L3.62801 19.3205C3.91801 21.0105 5.48801 22.3405 7.19801 22.3405H17.798C19.488 22.3405 21.088 20.9805 21.378 19.3105L22.638 11.7705C22.818 10.6005 22.248 9.10047 21.328 8.35047ZM13.248 18.3405C13.248 18.7505 12.908 19.0905 12.498 19.0905C12.088 19.0905 11.748 18.7505 11.748 18.3405V15.3405C11.748 14.9305 12.088 14.5905 12.498 14.5905C12.908 14.5905 13.248 14.9305 13.248 15.3405V18.3405Z" fill="white"/>
</svg>
