<svg width="43" height="43" viewBox="0 0 43 43" fill="none" xmlns="http://www.w3.org/2000/svg">
<path d="M21.341 23.8481C22.0635 23.8481 22.7788 23.7058 23.4463 23.4294C24.1137 23.1529 24.7201 22.7477 25.231 22.2368C25.7418 21.726 26.147 21.1196 26.4235 20.4521C26.7 19.7847 26.8422 19.0693 26.8422 18.3469C26.8422 17.6245 26.7 16.9091 26.4235 16.2417C26.147 15.5743 25.7418 14.9678 25.231 14.457C24.7201 13.9461 24.1137 13.5409 23.4463 13.2645C22.7788 12.988 22.0635 12.8457 21.341 12.8457C19.882 12.8457 18.4828 13.4253 17.4511 14.457C16.4194 15.4886 15.8398 16.8879 15.8398 18.3469C15.8398 19.8059 16.4194 21.2052 17.4511 22.2368C18.4828 23.2685 19.882 23.8481 21.341 23.8481Z" stroke="#F5F5F5" stroke-opacity="0.960784" stroke-width="2.64481"/>
<path d="M6.56475 15.1385C10.0383 -0.13084 32.6602 -0.113207 36.1161 15.1562C38.1438 24.1132 32.572 31.695 27.688 36.3852C25.9813 38.0312 23.7027 38.9509 21.3316 38.9509C18.9605 38.9509 16.6819 38.0312 14.9752 36.3852C10.1088 31.695 4.53706 24.0956 6.56475 15.1385Z" stroke="#F5F5F5" stroke-opacity="0.960784" stroke-width="2.64481"/>
</svg>
