<svg width="25" height="25" viewBox="0 0 25 25" fill="none" xmlns="http://www.w3.org/2000/svg">
<path opacity="0.4" d="M18.48 11.1305V15.1305C18.48 15.3905 18.47 15.6405 18.44 15.8805C18.21 18.5805 16.62 19.9205 13.69 19.9205H13.29C13.04 19.9205 12.8 20.0405 12.65 20.2405L11.45 21.8405C10.92 22.5505 10.06 22.5505 9.53 21.8405L8.33 20.2405C8.24996 20.1472 8.15212 20.0709 8.04223 20.016C7.93234 19.961 7.81259 19.9286 7.69 19.9205H7.29C4.1 19.9205 2.5 19.1305 2.5 15.1305V11.1305C2.5 8.20045 3.85 6.61045 6.54 6.38045C6.78 6.35045 7.03 6.34045 7.29 6.34045H13.69C16.88 6.34045 18.48 7.94045 18.48 11.1305Z" fill="#F5F5F5" fill-opacity="0.960784"/>
<path d="M10.488 14.3405C9.928 14.3405 9.488 13.8905 9.488 13.3405C9.488 12.7905 9.938 12.3405 10.488 12.3405C11.038 12.3405 11.488 12.7905 11.488 13.3405C11.488 13.8905 11.048 14.3405 10.488 14.3405ZM13.988 14.3405C13.428 14.3405 12.988 13.8905 12.988 13.3405C12.988 12.7905 13.438 12.3405 13.988 12.3405C14.538 12.3405 14.988 12.7905 14.988 13.3405C14.988 13.8905 14.538 14.3405 13.988 14.3405ZM7 14.3405C6.44 14.3405 6 13.8905 6 13.3405C6 12.7905 6.45 12.3405 7 12.3405C7.55 12.3405 8 12.7905 8 13.3405C8 13.8905 7.55 14.3405 7 14.3405Z" fill="#F5F5F5" fill-opacity="0.960784"/>
<path d="M22.4791 7.13045V11.1305C22.4791 14.0705 21.1291 15.6505 18.4391 15.8805C18.4691 15.6405 18.4791 15.3905 18.4791 15.1305V11.1305C18.4791 7.94045 16.8791 6.34045 13.6891 6.34045H7.28906C7.02906 6.34045 6.77906 6.35045 6.53906 6.38045C6.76906 3.69045 8.35906 2.34045 11.2891 2.34045H17.6891C20.8791 2.34045 22.4791 3.94045 22.4791 7.13045Z" fill="#F5F5F5" fill-opacity="0.960784"/>
</svg>
