<svg width="32" height="32" viewBox="0 0 32 32" fill="none" xmlns="http://www.w3.org/2000/svg">
<rect width="32" height="32" transform="matrix(0 -1 -1 0 32 32)" fill="black"/>
<path d="M16.1553 25.0665C21.1437 25.0665 25.1876 21.0226 25.1876 16.0342C25.1876 11.0458 21.1437 7.00195 16.1553 7.00195C11.1669 7.00195 7.12305 11.0458 7.12305 16.0342C7.12305 21.0226 11.1669 25.0665 16.1553 25.0665ZM16.1553 10.0555C19.4573 10.0555 22.134 12.7323 22.134 16.0342C22.134 19.3362 19.4573 22.0129 16.1553 22.0129C12.8533 22.0129 10.1766 19.3362 10.1766 16.0342C10.1766 12.7323 12.8533 10.0555 16.1553 10.0555Z" fill="#3B74FF"/>
<path d="M21.8506 10.4862C21.8506 9.71176 22.4784 9.08398 23.2528 9.08398C24.0272 9.08398 24.655 9.71176 24.655 10.4862C24.655 11.2606 24.0272 11.8884 23.2528 11.8884C22.4784 11.8884 21.8506 11.2606 21.8506 10.4862Z" fill="#2C9043" stroke="black" stroke-width="0.481807"/>
<path d="M16.2983 25.6006C21.4348 25.6006 25.5986 21.4367 25.5986 16.3003C25.5986 11.1639 21.4348 7 16.2983 7C11.1619 7 6.99805 11.1639 6.99805 16.3003C6.99805 21.4367 11.1619 25.6006 16.2983 25.6006ZM16.2983 10.1441C19.6983 10.1441 22.4545 12.9003 22.4545 16.3003C22.4545 19.7002 19.6983 22.4564 16.2983 22.4564C12.8984 22.4564 10.1422 19.7002 10.1422 16.3003C10.1422 12.9003 12.8984 10.1441 16.2983 10.1441Z" fill="#3B74FF"/>
<path d="M22.1632 10.5875C22.1632 9.79006 22.8096 9.14365 23.607 9.14365C24.4044 9.14365 25.0508 9.79006 25.0508 10.5875C25.0508 11.3848 24.4044 12.0313 23.607 12.0313C22.8096 12.0313 22.1632 11.3848 22.1632 10.5875Z" fill="#2C9043" stroke="black" stroke-width="0.496105"/>
<rect x="0.912587" y="0.912587" width="10.6235" height="10.6235" rx="5.31177" transform="matrix(0 -1 -1 0 28.5947 27.4375)" fill="#3B74FF"/>
<rect x="0.912587" y="0.912587" width="10.6235" height="10.6235" rx="5.31177" transform="matrix(0 -1 -1 0 28.5947 27.4375)" stroke="black" stroke-width="1.82517"/>
<path d="M21.1231 23.2129V19.8181H22.4824C22.7321 19.8181 22.9404 19.8551 23.1073 19.9291C23.2742 20.0032 23.3996 20.106 23.4836 20.2375C23.5676 20.3679 23.6095 20.5182 23.6095 20.6883C23.6095 20.8209 23.583 20.9375 23.53 21.0381C23.4769 21.1375 23.404 21.2193 23.3112 21.2834C23.2195 21.3464 23.1145 21.3912 22.9962 21.4177V21.4508C23.1255 21.4564 23.2465 21.4928 23.3592 21.5602C23.4731 21.6277 23.5653 21.7221 23.6361 21.8437C23.7068 21.9641 23.7422 22.1078 23.7422 22.2747C23.7422 22.4548 23.6974 22.6156 23.6079 22.757C23.5195 22.8974 23.3885 23.0085 23.215 23.0902C23.0415 23.172 22.8277 23.2129 22.5735 23.2129H21.1231ZM21.8409 22.6261H22.426C22.626 22.6261 22.7719 22.588 22.8636 22.5117C22.9553 22.4344 23.0012 22.3316 23.0012 22.2034C23.0012 22.1095 22.9785 22.0266 22.9332 21.9548C22.8879 21.8829 22.8233 21.8266 22.7393 21.7857C22.6564 21.7448 22.5575 21.7243 22.4426 21.7243H21.8409V22.6261ZM21.8409 21.2387H22.373C22.4713 21.2387 22.5586 21.2215 22.6349 21.1873C22.7122 21.1519 22.773 21.1022 22.8172 21.0381C22.8625 20.974 22.8852 20.8972 22.8852 20.8077C22.8852 20.685 22.8415 20.5861 22.7542 20.511C22.668 20.4358 22.5454 20.3982 22.3862 20.3982H21.8409V21.2387Z" fill="black"/>
</svg>
