<svg width="25" height="25" viewBox="0 0 25 25" fill="none" xmlns="http://www.w3.org/2000/svg">
<path d="M12.5 2.34045C9.88 2.34045 7.75 4.47045 7.75 7.09045C7.75 9.66045 9.76 11.7405 12.38 11.8305C12.46 11.8205 12.54 11.8205 12.6 11.8305H12.67C13.8994 11.7894 15.0646 11.2719 15.9193 10.3874C16.774 9.50279 17.2512 8.32049 17.25 7.09045C17.25 4.47045 15.12 2.34045 12.5 2.34045Z" fill="#F5F5F5" fill-opacity="0.960784"/>
<path opacity="0.4" d="M17.5809 14.4895C14.7909 12.6295 10.2409 12.6295 7.43094 14.4895C6.16094 15.3395 5.46094 16.4895 5.46094 17.7195C5.46094 18.9495 6.16094 20.0895 7.42094 20.9295C8.82094 21.8695 10.6609 22.3395 12.5009 22.3395C14.3409 22.3395 16.1809 21.8695 17.5809 20.9295C18.8409 20.0795 19.5409 18.9395 19.5409 17.6995C19.5309 16.4695 18.8409 15.3295 17.5809 14.4895Z" fill="#F5F5F5" fill-opacity="0.960784"/>
<path d="M14.5 16.9695H13.25V15.7195C13.25 15.3095 12.91 14.9695 12.5 14.9695C12.09 14.9695 11.75 15.3095 11.75 15.7195V16.9695H10.5C10.09 16.9695 9.75 17.3095 9.75 17.7195C9.75 18.1295 10.09 18.4695 10.5 18.4695H11.75V19.7195C11.75 20.1295 12.09 20.4695 12.5 20.4695C12.91 20.4695 13.25 20.1295 13.25 19.7195V18.4695H14.5C14.91 18.4695 15.25 18.1295 15.25 17.7195C15.25 17.3095 14.91 16.9695 14.5 16.9695Z" fill="#F5F5F5" fill-opacity="0.960784"/>
</svg>
