<svg width="25" height="25" viewBox="0 0 25 25" fill="none" xmlns="http://www.w3.org/2000/svg">
<path d="M15.8909 5.55082L17.3009 8.37082C17.4909 8.76082 18.0009 9.13082 18.4309 9.21082L20.9809 9.63082C22.6109 9.90082 22.9909 11.0808 21.8209 12.2608L19.8309 14.2508C19.5009 14.5808 19.3109 15.2308 19.4209 15.7008L19.9909 18.1608C20.4409 20.1008 19.4009 20.8608 17.6909 19.8408L15.3009 18.4208C14.8709 18.1608 14.1509 18.1608 13.7209 18.4208L11.3309 19.8408C9.62094 20.8508 8.58094 20.1008 9.03094 18.1608L9.60094 15.7008C9.71094 15.2408 9.52094 14.5908 9.19094 14.2508L7.20094 12.2608C6.03094 11.0908 6.41094 9.91082 8.04094 9.63082L10.5909 9.21082C11.0209 9.14082 11.5309 8.76082 11.7209 8.37082L13.1309 5.55082C13.8809 4.02082 15.1209 4.02082 15.8909 5.55082Z" fill="#F5F5F5" fill-opacity="0.960784"/>
<path opacity="0.4" d="M8.5 6.09082H2.5C2.09 6.09082 1.75 5.75082 1.75 5.34082C1.75 4.93082 2.09 4.59082 2.5 4.59082H8.5C8.91 4.59082 9.25 4.93082 9.25 5.34082C9.25 5.75082 8.91 6.09082 8.5 6.09082ZM5.5 20.0908H2.5C2.09 20.0908 1.75 19.7508 1.75 19.3408C1.75 18.9308 2.09 18.5908 2.5 18.5908H5.5C5.91 18.5908 6.25 18.9308 6.25 19.3408C6.25 19.7508 5.91 20.0908 5.5 20.0908ZM3.5 13.0908H2.5C2.09 13.0908 1.75 12.7508 1.75 12.3408C1.75 11.9308 2.09 11.5908 2.5 11.5908H3.5C3.91 11.5908 4.25 11.9308 4.25 12.3408C4.25 12.7508 3.91 13.0908 3.5 13.0908Z" fill="#F5F5F5" fill-opacity="0.960784"/>
</svg>
