<svg width="23" height="22" viewBox="0 0 23 22" fill="none" xmlns="http://www.w3.org/2000/svg">
<path d="M5.00004 12.3404C3.85004 12.3404 2.79004 12.7804 2.00004 13.5004C1.52631 13.918 1.14737 14.4321 0.888655 15.0081C0.629942 15.5842 0.497439 16.209 0.500037 16.8404C0.500037 18.0339 0.974143 19.1785 1.81806 20.0224C2.66197 20.8663 3.80656 21.3404 5.00004 21.3404C6.08004 21.3404 7.06004 20.9604 7.84004 20.3404C8.47004 19.8104 8.97004 19.1304 9.24004 18.3404C9.41004 17.8704 9.50004 17.3704 9.50004 16.8404C9.50004 16.2495 9.38364 15.6643 9.1575 15.1184C8.93135 14.5724 8.59988 14.0763 8.18202 13.6585C7.76415 13.2406 7.26808 12.9091 6.72211 12.683C6.17615 12.4568 5.59099 12.3404 5.00004 12.3404ZM7.70004 15.9704C7.70004 16.2804 7.45004 16.5204 7.15004 16.5204C6.85004 16.5204 6.60004 16.2804 6.60004 15.9704V15.8604C6.60004 15.7404 6.51004 15.6404 6.39004 15.6404H4.13004C4.17573 15.7238 4.19892 15.8176 4.19734 15.9126C4.19575 16.0076 4.16944 16.1006 4.12099 16.1823C4.07255 16.2641 4.00364 16.3318 3.92106 16.3788C3.83847 16.4258 3.74507 16.4505 3.65004 16.4504C3.51004 16.4504 3.37004 16.3904 3.27004 16.2904L2.46004 15.4804C2.40886 15.4287 2.36811 15.3676 2.34004 15.3004C2.29006 15.1649 2.29006 15.016 2.34004 14.8804C2.37004 14.8204 2.41004 14.7504 2.46004 14.7004L3.27004 13.9004C3.48004 13.6804 3.83004 13.6804 4.04004 13.9004C4.22004 14.0704 4.24004 14.3404 4.13004 14.5404H6.39004C7.11004 14.5404 7.70004 15.1304 7.70004 15.8604V15.9704ZM6.35004 19.9404C6.20004 19.9404 6.06004 19.8904 5.96004 19.7804C5.87686 19.6984 5.82298 19.5913 5.80671 19.4757C5.79045 19.36 5.8127 19.2422 5.87004 19.1404H3.61004C2.89004 19.1404 2.30004 18.5504 2.30004 17.8204V17.7104C2.30004 17.4004 2.55004 17.1604 2.85004 17.1604C3.15004 17.1604 3.40004 17.4004 3.40004 17.7104V17.8204C3.40004 17.9404 3.49004 18.0404 3.61004 18.0404H5.87004C5.81273 17.9369 5.79052 17.8176 5.80675 17.7004C5.82297 17.5833 5.87676 17.4745 5.96004 17.3904C6.06285 17.2897 6.20107 17.2332 6.34504 17.2332C6.489 17.2332 6.62723 17.2897 6.73004 17.3904L7.54004 18.2004C7.59004 18.2504 7.63004 18.3104 7.66004 18.3804C7.71004 18.5104 7.71004 18.6604 7.66004 18.8004C7.63004 18.8604 7.59004 18.9304 7.54004 18.9804L6.73004 19.7804C6.63004 19.8904 6.49004 19.9404 6.35004 19.9404ZM14.35 2.29244V6.09244H5.76004C3.69004 6.09244 2.00004 7.78244 2.00004 9.85244V6.18244C2.00004 4.99244 2.73004 3.93244 3.84004 3.51244L11.78 0.512443C13.02 0.0524427 14.35 0.962443 14.35 2.29244ZM22.059 12.3104V14.3704C22.059 14.9204 21.619 15.3704 21.059 15.3904H19.099C18.019 15.3904 17.029 14.6004 16.939 13.5204C16.879 12.8904 17.119 12.3004 17.539 11.8904C17.909 11.5104 18.419 11.2904 18.979 11.2904H21.059C21.619 11.3104 22.059 11.7604 22.059 12.3104ZM13.5 11.0904H6.50004C6.09004 11.0904 5.75004 10.7504 5.75004 10.3404C5.75004 9.93044 6.09004 9.59044 6.50004 9.59044H13.5C13.91 9.59044 14.25 9.93044 14.25 10.3404C14.25 10.7504 13.91 11.0904 13.5 11.0904Z" fill="#F5F5F5" fill-opacity="0.960784"/>
</svg>
